<svg width="1175" height="537" viewBox="0 0 1175 537" fill="none" xmlns="http://www.w3.org/2000/svg">
<path d="M145.436 235.638C205.749 201.831 185.133 213.386 256.49 173.385L328.236 281.165C328.71 276.68 328.967 272.132 328.967 267.52C328.967 196.827 271.656 139.516 200.962 139.516C130.265 139.516 72.9578 196.827 72.9578 267.52C72.9578 325.339 111.3 374.183 163.937 390.067L145.434 361.656C145.436 347.158 145.436 248.894 145.436 235.638Z" fill="#002F55"/>
<path d="M256.49 173.386C256.49 186.976 256.49 282.528 256.49 296.54L223.886 315.658C223.886 296.203 223.886 241.08 223.886 221.404L214.548 226.641C214.548 246.401 214.548 301.639 214.548 321.134L185.479 338.18C185.479 318.522 185.479 262.73 185.479 242.934L176.14 248.169C176.14 268.218 176.14 323.984 176.14 343.654L145.436 361.657L163.939 390.068C175.661 393.603 188.086 395.527 200.962 395.527C267.048 395.527 321.424 345.444 328.236 281.166L256.49 173.386Z" fill="#035191"/>
<path d="M376.327 234.173H392.422L421.261 263.114L450.101 234.173H466.196V313.532H450.101V256.463L421.261 284.236L392.422 256.463V313.532H376.327V234.173ZM477.88 273.624C477.88 267.633 478.98 262.15 481.18 257.174C483.38 252.198 486.461 247.933 490.421 244.379C494.415 240.791 499.188 238.015 504.739 236.052C510.324 234.089 516.502 233.107 523.271 233.107C530.007 233.107 536.168 234.089 541.753 236.052C547.338 238.015 552.111 240.791 556.071 244.379C560.065 247.933 563.162 252.198 565.362 257.174C567.563 262.15 568.663 267.633 568.663 273.624C568.663 279.649 567.563 285.184 565.362 290.227C563.162 295.237 560.065 299.553 556.071 303.174C552.111 306.796 547.338 309.623 541.753 311.654C536.168 313.651 530.007 314.649 523.271 314.649C516.502 314.649 510.324 313.651 504.739 311.654C499.188 309.623 494.415 306.796 490.421 303.174C486.461 299.553 483.38 295.237 481.18 290.227C478.98 285.184 477.88 279.649 477.88 273.624ZM493.975 273.624C493.975 277.72 494.703 281.41 496.158 284.693C497.648 287.976 499.695 290.786 502.302 293.121C504.942 295.423 508.039 297.2 511.593 298.453C515.181 299.705 519.074 300.331 523.271 300.331C527.469 300.331 531.344 299.705 534.898 298.453C538.486 297.2 541.584 295.423 544.19 293.121C546.796 290.786 548.844 287.976 550.334 284.693C551.823 281.41 552.568 277.72 552.568 273.624C552.568 269.529 551.823 265.856 550.334 262.606C548.844 259.357 546.796 256.615 544.19 254.381C541.584 252.113 538.486 250.387 534.898 249.202C531.344 248.018 527.469 247.425 523.271 247.425C519.074 247.425 515.181 248.018 511.593 249.202C508.039 250.387 504.942 252.113 502.302 254.381C499.695 256.615 497.648 259.357 496.158 262.606C494.703 265.856 493.975 269.529 493.975 273.624ZM580.194 234.173H596.29L645.743 260.068V234.173H661.838V313.532H645.743V277.128L596.29 251.386V313.532H580.194V234.173ZM705.103 234.173H722.163L760.548 313.532H743.64L737.294 300.179H690.937L684.794 313.532H667.835L705.103 234.173ZM730.947 286.927L713.785 250.878L697.081 286.927H730.947ZM756.035 234.173H773.857L798.786 294.695L823.716 234.173H841.538L806.758 313.532H790.815L756.035 234.173ZM847.23 234.173H914.81V248.288H863.325V264.13H908.92V277.382H863.325V299.468H915.876V313.532H847.23V234.173ZM927.509 234.173H995.089V248.288H943.604V264.13H989.199V277.382H943.604V299.468H996.155V313.532H927.509V234.173ZM1007.69 234.173H1023.78L1073.24 260.068V234.173H1089.33V313.532H1073.24V277.128L1023.78 251.386V313.532H1007.69V234.173Z" fill="#023259"/>
</svg>
